<?xml version="1.0" encoding="UTF-8"?>
<svg version="1.1" xmlns="http://www.w3.org/2000/svg" width="1024" height="1024">
<path d="M0 0 C337.92 0 675.84 0 1024 0 C1024 337.92 1024 675.84 1024 1024 C686.08 1024 348.16 1024 0 1024 C0 686.08 0 348.16 0 0 Z " fill="#FBF9F7" transform="translate(0,0)"/>
<path d="M0 0 C1.42910355 1.25979809 2.85114989 2.52758892 4.27270508 3.79589844 C10.52203416 9.57486857 10.52203416 9.57486857 18.62426758 11.15527344 C22.05898189 10.68920601 25.07108792 9.58421063 28.33520508 8.42089844 C53.19193456 -0.26887735 83.5599783 1.35124263 108.20043945 10.17382812 C111.80067942 11.25457876 114.51377523 11.22725104 118.27270508 10.79589844 C122.68063185 8.170412 126.49246 4.98115035 130.33520508 1.60839844 C163.51688508 -26.86568129 207.72359642 -42.13853827 251.27270508 -43.20410156 C252.07256836 -43.22456543 252.87243164 -43.2450293 253.6965332 -43.26611328 C299.37794582 -44.27110436 342.7167295 -35.08835811 381.77270508 -10.82910156 C394.86907627 -2.77508139 406.81451193 0.23723759 422.06274414 1.80981445 C423.05242188 1.91221436 424.04209961 2.01461426 425.06176758 2.12011719 C425.94558105 2.20350342 426.82939453 2.28688965 427.73999023 2.37280273 C430.5191328 2.83706474 432.74984975 3.53929254 435.27270508 4.79589844 C438.43796922 9.54379464 437.60092022 14.58887981 437.58520508 20.17089844 C437.609375 21.87632812 437.609375 21.87632812 437.6340332 23.61621094 C437.63467773 24.71449219 437.63532227 25.81277344 437.63598633 26.94433594 C437.64045776 28.44746338 437.64045776 28.44746338 437.64501953 29.98095703 C437.21107195 33.26188528 436.19548335 35.12587517 434.27270508 37.79589844 C431.28584811 40.07996553 428.3262409 41.10837942 424.77270508 42.17089844 C420.48237464 43.56062341 418.05137314 45.11824953 415.27270508 48.79589844 C412.13114806 55.59607671 411.62819636 61.93489471 411.21020508 69.35839844 C411.05141383 71.69712272 410.88997386 74.03566873 410.72583008 76.37402344 C410.64913086 77.48970703 410.57243164 78.60539062 410.4934082 79.75488281 C407.84481209 116.24925579 394.65903027 150.26366273 369.27270508 176.79589844 C368.55083008 177.59253906 367.82895508 178.38917969 367.08520508 179.20996094 C346.62630394 200.98210236 317.29340395 213.0013395 288.27270508 217.79589844 C287.22219971 217.97169434 286.17169434 218.14749023 285.08935547 218.32861328 C280.71333144 218.86438441 276.43816892 218.97636841 272.03442383 218.99902344 C271.1547847 219.00472351 270.27514557 219.01042358 269.36885071 219.01629639 C267.50893336 219.02570792 265.64899963 219.03226499 263.7890625 219.03613281 C261.0066013 219.04573827 258.2249121 219.07675628 255.44262695 219.10839844 C215.69385131 219.34469802 179.10981735 204.40497755 150.64770508 176.67089844 C143.11773516 169.11085521 137.00009983 160.77486258 131.27270508 151.79589844 C130.89033691 151.1995459 130.50796875 150.60319336 130.11401367 149.98876953 C116.56856167 128.50351391 98.01703575 88.63627264 103.27270508 62.79589844 C104.26966483 61.12741139 105.26961752 59.46070868 106.27270508 57.79589844 C106.98248236 53.73207558 106.64446927 49.9643002 105.39770508 46.04589844 C97.43872612 37.61874425 82.73020059 34.94091683 71.58520508 34.59277344 C56.63290291 34.37344489 40.84991662 34.95503305 28.21020508 43.98339844 C25.61854264 47.74548908 24.79389079 51.23968123 25.27270508 55.79589844 C25.99586914 57.21708984 25.99586914 57.21708984 26.73364258 58.66699219 C34.05963776 73.5607032 24.30659778 96.67976339 19.56567383 111.15527344 C11.72546651 133.85133774 0.64071994 155.12149063 -15.72729492 172.79589844 C-16.22600098 173.33843262 -16.72470703 173.8809668 -17.23852539 174.43994141 C-35.09968091 193.65378778 -57.42676358 206.83997266 -82.72729492 213.79589844 C-83.43305664 213.9926416 -84.13881836 214.18938477 -84.8659668 214.39208984 C-125.93085633 225.58217797 -170.70498429 220.70824167 -207.91479492 199.98339844 C-241.2302575 180.68463569 -264.13540233 148.13379897 -274.10717773 111.21289062 C-277.79751942 96.82927538 -279.46319199 82.31790376 -280.60107422 67.54296875 C-281.45088884 55.30463899 -281.45088884 55.30463899 -287.28979492 44.92089844 C-290.668354 42.43990142 -294.4558193 41.60872747 -298.45385742 40.53417969 C-302.27173799 39.29435249 -303.9360652 37.24648626 -305.80541992 33.81933594 C-307.17655438 29.32247971 -307.01586613 24.96944319 -306.97729492 20.29589844 C-306.98889648 18.89017578 -306.98889648 18.89017578 -307.00073242 17.45605469 C-306.9735371 7.86970352 -306.9735371 7.86970352 -304.72729492 4.79589844 C-299.23782437 2.1138829 -294.19460115 1.31285318 -288.16479492 0.85839844 C-270.65329198 -0.8404518 -256.4260468 -6.89570846 -241.52026367 -15.92919922 C-171.58590857 -58.27581359 -62.56719816 -54.33994051 0 0 Z " fill="#011975" transform="translate(446.727294921875,265.2041015625)"/>
<path d="M0 0 C2.97929861 0.00315065 5.95759145 -0.020355 8.93676758 -0.0456543 C21.65182747 -0.08777738 33.81868461 0.96132869 46.3137207 3.31567383 C47.34601807 3.50911377 48.37831543 3.70255371 49.44189453 3.90185547 C51.77244015 4.37982968 54.07195255 4.91244279 56.3762207 5.50317383 C57.58846313 5.81182373 57.58846313 5.81182373 58.82519531 6.12670898 C76.961888 11.00135151 92.85845927 19.10709219 106.3137207 32.31567383 C107.0252832 33.00274414 107.7368457 33.68981445 108.4699707 34.39770508 C123.11233512 49.57507896 127.73698234 72.07166514 127.6262207 92.50317383 C127.61884888 94.13609375 127.61884888 94.13609375 127.61132812 95.80200195 C127.48011776 104.91540317 126.50983049 113.47935807 124.3137207 122.31567383 C124.14743164 123.00532227 123.98114258 123.6949707 123.80981445 124.40551758 C118.70083155 145.03067079 109.05963016 162.94106281 94.3137207 178.31567383 C93.5093457 179.16129883 92.7049707 180.00692383 91.8762207 180.87817383 C91.0305957 181.68254883 90.1849707 182.48692383 89.3137207 183.31567383 C88.65500977 183.96922852 87.99629883 184.6227832 87.31762695 185.29614258 C72.54748856 199.38719415 53.80900665 207.18724008 34.3137207 212.31567383 C33.41266602 212.55286133 32.51161133 212.79004883 31.58325195 213.03442383 C-1.38884109 220.97106923 -39.70055862 214.69645252 -68.6862793 197.31567383 C-96.34189033 179.70315589 -115.636315 153.20377801 -122.8737793 121.14379883 C-128.33201132 95.42712874 -126.95039366 67.76763316 -112.58862305 44.98364258 C-93.60057653 18.35358966 -62.51896875 7.26613526 -31.51416016 1.75146484 C-21.01084384 0.1235992 -10.60985395 -0.02336782 0 0 Z " fill="#FBF9F7" transform="translate(705.686279296875,247.684326171875)"/>
<path d="M0 0 C1.25141281 -0.00285507 1.25141281 -0.00285507 2.52810669 -0.00576782 C18.2863997 -0.00168914 33.53661899 1.31159724 48.875 5.125 C49.94621094 5.38885498 51.01742187 5.65270996 52.12109375 5.92456055 C71.16626222 10.76789428 89.69321435 18.96089718 104.25 32.375 C104.90226563 32.94734375 105.55453125 33.5196875 106.2265625 34.109375 C121.23411489 47.99301378 127.28169704 69.4853071 128.48828125 89.28515625 C129.40901518 123.50095017 116.79558879 154.94289878 93.68359375 179.9375 C77.19531147 196.45224822 56.75218083 206.93710062 34.25 212.375 C33.24090576 212.6227417 33.24090576 212.6227417 32.21142578 212.87548828 C-1.13154895 220.66921721 -38.49098564 215.20146695 -67.84375 197.58398438 C-73.12635764 194.23364203 -77.96297882 190.3903429 -82.75 186.375 C-83.56984375 185.70726562 -84.3896875 185.03953125 -85.234375 184.3515625 C-102.32862211 169.90987098 -113.16898349 149.83177246 -119.5625 128.6875 C-119.7574707 128.04772217 -119.95244141 127.40794434 -120.15332031 126.7487793 C-123.38558949 115.37740551 -124.14101946 103.89711921 -124.125 92.125 C-124.12445618 91.4462381 -124.12391235 90.7674762 -124.12335205 90.06814575 C-124.08389118 79.33210608 -123.31017444 69.53425166 -119.75 59.375 C-119.32589844 58.15296875 -118.90179688 56.9309375 -118.46484375 55.671875 C-110.41105952 34.94291502 -93.90585081 21.14855311 -74 12.1875 C-50.11520806 2.55527243 -25.56344135 0.0062608 0 0 Z " fill="#FBF9F7" transform="translate(316.75,247.625)"/>
<path d="M0 0 C10.43502033 8.59044603 17.60841008 21.82286275 19.5703125 35.22265625 C21.04397545 53.42727489 17.72393837 68.78814341 5.953125 83.203125 C-3.01357324 92.92062333 -16.33859584 99.49718852 -29.57958984 100.36328125 C-47.99724153 101.08995916 -63.28848827 98.20436888 -77.7421875 85.97265625 C-82.40099383 81.57226231 -85.56397943 76.92703741 -88.4296875 71.22265625 C-88.81898438 70.45824219 -89.20828125 69.69382812 -89.609375 68.90625 C-95.63243159 56.26662394 -96.6675096 40.67815325 -92.8046875 27.22265625 C-87.52845116 12.71760234 -79.41091329 1.25751353 -65.4296875 -5.77734375 C-64.30046875 -6.36128906 -64.30046875 -6.36128906 -63.1484375 -6.95703125 C-43.01509254 -16.66924343 -17.71593119 -12.95940304 0 0 Z " fill="#011974" transform="translate(655.4296875,702.77734375)"/>
<path d="M0 0 C7.92 0 15.84 0 24 0 C32.02589925 8.79359396 32.02589925 8.79359396 34.1328125 12.86328125 C36.8944881 17.92254134 40.11670792 22.45189745 43.5625 27.0625 C44.64774408 28.55887307 45.72979313 30.05756867 46.80859375 31.55859375 C47.3382373 32.2944873 47.86788086 33.03038086 48.41357422 33.78857422 C50.99785561 37.39097817 53.56555979 41.00491363 56.125 44.625 C56.55498291 45.232229 56.98496582 45.83945801 57.42797852 46.46508789 C62.68935795 53.92877045 67.82581471 61.47391231 73 69 C73.33 46.23 73.66 23.46 74 0 C81.92 0 89.84 0 98 0 C98 35.97 98 71.94 98 109 C90.08 109 82.16 109 74 109 C65.9720668 100.20417754 65.9720668 100.20417754 63.859375 96.12890625 C61.12735947 91.12554953 57.96308617 86.62874055 54.5625 82.0625 C53.48252708 80.57034614 52.40441563 79.07684332 51.328125 77.58203125 C47.32078898 72.0510975 43.26511697 66.55582993 39.19555664 61.07055664 C34.04080948 54.10630526 29.03921798 47.05490517 24 40 C24 62.77 24 85.54 24 109 C16.08 109 8.16 109 0 109 C0 73.03 0 37.06 0 0 Z " fill="#021974" transform="translate(669,540)"/>
<path d="M0 0 C7.59 0 15.18 0 23 0 C29.26783305 6.54640341 29.26783305 6.54640341 30.76953125 9.7578125 C33.15011657 14.45763349 36.17135422 18.5344088 39.3125 22.75 C40.42422061 24.28345847 41.53357805 25.81863283 42.640625 27.35546875 C44.85776582 30.42174103 47.07680188 33.48663157 49.296875 36.55078125 C50.1180481 37.68531738 50.1180481 37.68531738 50.95581055 38.84277344 C51.96423694 40.2359679 52.9734019 41.62862837 53.98364258 43.02050781 C59.73024596 50.96238876 65.34551015 58.98947271 71 67 C71.33 44.89 71.66 22.78 72 0 C79.92 0 87.84 0 96 0 C96 35.64 96 71.28 96 108 C73 108 73 108 67.375 102.625 C66.08837891 100.73535156 66.08837891 100.73535156 65.2265625 99.015625 C62.79258416 94.49697892 59.80153096 90.4919381 56.75 86.375 C55.64228413 84.83755404 54.53684898 83.2984625 53.43359375 81.7578125 C49.93286797 76.89239701 46.37659396 72.06909763 42.8125 67.25 C29.40572034 49.10858051 29.40572034 49.10858051 24 41 C23.67 63.11 23.34 85.22 23 108 C15.41 108 7.82 108 0 108 C0 72.36 0 36.72 0 0 Z " fill="#011874" transform="translate(702,693)"/>
<path d="M0 0 C1.61896926 1.37014564 3.17284197 2.81679659 4.70703125 4.28125 C3.41647389 7.03092731 1.99618829 9.35998302 0.10546875 11.734375 C-0.384375 12.353125 -0.87421875 12.971875 -1.37890625 13.609375 C-1.88679688 14.24359375 -2.3946875 14.8778125 -2.91796875 15.53125 C-3.43359375 16.1809375 -3.94921875 16.830625 -4.48046875 17.5 C-5.74811054 19.09628967 -7.02011236 20.68911526 -8.29296875 22.28125 C-8.95941406 21.82234375 -9.62585938 21.3634375 -10.3125 20.890625 C-22.70413519 12.64108884 -33.484941 9.61279125 -48.29296875 11.28125 C-51.78774896 12.08371991 -54.36117757 13.23751175 -57.29296875 15.28125 C-57.99679688 15.755625 -58.700625 16.23 -59.42578125 16.71875 C-65.18539767 21.139415 -68.60649966 26.20896028 -70.29296875 33.28125 C-71.74486054 46.23372318 -71.44191369 59.03508664 -63.16796875 69.65625 C-58.16512244 74.92981311 -50.67226478 78.97802311 -43.359375 79.484375 C-35.25526204 79.59279123 -27.99826815 78.88149035 -20.29296875 76.28125 C-19.53757812 76.0853125 -18.7821875 75.889375 -18.00390625 75.6875 C-15.8708039 74.24909879 -15.8708039 74.24909879 -15.68359375 70.5859375 C-15.61351821 69.11029408 -15.57151322 67.63328057 -15.54296875 66.15625 C-15.46046875 63.5575 -15.37796875 60.95875 -15.29296875 58.28125 C-22.55296875 58.28125 -29.81296875 58.28125 -37.29296875 58.28125 C-37.29296875 52.01125 -37.29296875 45.74125 -37.29296875 39.28125 C-22.77296875 39.28125 -8.25296875 39.28125 6.70703125 39.28125 C6.93743014 45.54809993 7.13609205 51.80014907 7.25634766 58.06787109 C7.30647799 60.19630825 7.37460567 62.3244037 7.46142578 64.45166016 C8.16238293 82.07454764 8.16238293 82.07454764 4.65844727 87.38745117 C2.09259378 89.48709296 -0.28278772 90.9113913 -3.29296875 92.28125 C-4.40285156 92.93738281 -5.51273437 93.59351563 -6.65625 94.26953125 C-23.76997529 101.95370724 -43.12493873 104.6631217 -61.21875 98.5390625 C-75.57685172 92.66446434 -85.39009716 84.35248824 -92.29296875 70.28125 C-98.58020373 52.8914122 -99.07846816 36.29657836 -92.0078125 19.16796875 C-84.29603317 3.98070416 -72.34494176 -4.33597252 -56.5546875 -9.7734375 C-37.97628656 -15.15783633 -15.55290738 -11.65805664 0 0 Z " fill="#021974" transform="translate(225.29296875,549.71875)"/>
<path d="M0 0 C8.58 0 17.16 0 26 0 C31.62100596 12.36621311 31.62100596 12.36621311 33.61230469 17.39526367 C34.06406067 18.53111404 34.51581665 19.66696442 34.98126221 20.8372345 C35.69436554 22.64063545 35.69436554 22.64063545 36.421875 24.48046875 C37.48243834 27.14943771 38.54502721 29.81759942 39.60742188 32.48583984 C40.01967199 33.52231077 40.01967199 33.52231077 40.4402504 34.5797205 C43.32982725 41.84035279 46.25391169 49.0869522 49.1816864 56.33224869 C50.07619975 58.54601659 50.9701383 60.76001573 51.8638916 62.97409058 C54.28256087 68.96555758 56.70176223 74.95680821 59.12353516 80.94702148 C60.63661641 84.68978051 62.14804052 88.43320487 63.65834808 92.17708397 C64.22709331 93.5860134 64.7964689 94.99468855 65.36649323 96.40310097 C66.1498744 98.33882224 66.93114958 100.27538033 67.71191406 102.2121582 C68.1553717 103.30969925 68.59882935 104.4072403 69.0557251 105.53804016 C70 108 70 108 70 109 C61.42 109 52.84 109 44 109 C41.03 101.74 38.06 94.48 35 87 C20.15 86.67 5.3 86.34 -10 86 C-10.99 89.3 -11.98 92.6 -13 96 C-14.58583014 100.36885036 -16.29733783 104.67431774 -18 109 C-26.25 109 -34.5 109 -43 109 C-42.16938705 104.84693524 -41.1517199 101.56131399 -39.59838867 97.66625977 C-39.35417175 97.05047562 -39.10995483 96.43469147 -38.8583374 95.80024719 C-38.04892811 93.76233043 -37.23348029 91.72688792 -36.41796875 89.69140625 C-35.84243393 88.24598978 -35.26727138 86.80042503 -34.69245911 85.35472107 C-33.17029388 81.52933802 -31.64298845 77.70602739 -30.11462402 73.88311768 C-28.60779242 70.11147551 -27.10586217 66.3378835 -25.60351562 62.56445312 C-22.94581968 55.89103484 -20.28204916 49.22006222 -17.61556816 42.55014992 C-15.86979674 38.18176294 -14.12898116 33.81144365 -12.39268398 29.43928242 C-11.29074414 26.66508433 -10.18683659 23.89167152 -9.0826664 21.11836052 C-8.56836612 19.82517447 -8.05496242 18.53163143 -7.54253197 17.23770332 C-6.83716147 15.45691005 -6.12824954 13.67752077 -5.41918945 11.89819336 C-5.02246536 10.8991246 -4.62574127 9.90005585 -4.21699524 8.87071228 C-2.9391146 5.85638031 -1.46418415 2.9283683 0 0 Z " fill="#011874" transform="translate(400,540)"/>
<path d="M0 0 C0.98226562 0.97259766 0.98226562 0.97259766 1.984375 1.96484375 C1.984375 6.18946026 1.94357355 6.51074538 -0.640625 9.41796875 C-1.18203125 10.03671875 -1.7234375 10.65546875 -2.28125 11.29296875 C-2.85359375 11.9271875 -3.4259375 12.56140625 -4.015625 13.21484375 C-4.58796875 13.86453125 -5.1603125 14.51421875 -5.75 15.18359375 C-7.163111 16.78511955 -8.5882392 18.37602741 -10.015625 19.96484375 C-12.45939593 18.7459531 -14.89587754 17.51537518 -17.328125 16.2734375 C-18.55724431 15.64964626 -19.78641217 15.02595068 -21.015625 14.40234375 C-21.63179687 14.08587891 -22.24796875 13.76941406 -22.8828125 13.44335938 C-31.94533409 8.8634799 -43.32866151 8.19598073 -53.17578125 10.80078125 C-60.88113328 14.34976874 -66.08901727 20.17778975 -69.453125 27.90234375 C-73.07450964 39.18977638 -72.27730398 52.36341934 -67.015625 62.96484375 C-62.22946982 71.2803123 -55.95402123 74.98537834 -47.015625 77.96484375 C-36.30971465 78.71376638 -27.7580018 77.83603215 -18.015625 72.96484375 C-17.70232033 70.24263992 -17.50297517 67.63255945 -17.390625 64.90234375 C-17.205 60.97328125 -17.205 60.97328125 -17.015625 56.96484375 C-24.275625 56.96484375 -31.535625 56.96484375 -39.015625 56.96484375 C-39.015625 50.69484375 -39.015625 44.42484375 -39.015625 37.96484375 C-24.165625 37.96484375 -9.315625 37.96484375 5.984375 37.96484375 C6.17 45.05984375 6.355625 52.15484375 6.546875 59.46484375 C6.66977905 62.80125977 6.66977905 62.80125977 6.79516602 66.20507812 C7.09708971 80.07899636 7.09708971 80.07899636 4.18041992 85.0222168 C1.88217107 87.12624743 -0.24808696 88.55035548 -3.015625 89.96484375 C-3.62929932 90.35430176 -4.24297363 90.74375977 -4.87524414 91.14501953 C-19.75297017 100.34868414 -38.05524675 102.50594934 -55.125 99.30859375 C-68.89220263 95.75971485 -80.51173452 88.31096228 -88.203125 76.27734375 C-96.47970898 61.62371965 -99.7336975 45.01452879 -95.765625 28.42578125 C-91.0113982 12.82597456 -81.78024322 0.37840955 -67.203125 -7.41015625 C-44.56040865 -17.80732192 -19.91234248 -14.20301264 0 0 Z " fill="#021974" transform="translate(890.015625,551.03515625)"/>
<path d="M0 0 C28.71 0 57.42 0 87 0 C87 18.90885931 87 18.90885931 83.24194336 23.16625977 C82.70835205 23.68889404 82.17476074 24.21152832 81.625 24.75 C80.51280534 25.98170428 79.40215231 27.21480219 78.29296875 28.44921875 C77.45644775 29.33939697 77.45644775 29.33939697 76.60302734 30.24755859 C74.19373986 32.88140958 72.07278432 35.70575958 69.9375 38.5625 C69.1239083 39.62875993 68.30879784 40.69386267 67.4921875 41.7578125 C67.08581055 42.28793945 66.67943359 42.81806641 66.26074219 43.36425781 C64.04678188 46.23674698 61.80513174 49.08737356 59.5625 51.9375 C59.10407715 52.52039795 58.6456543 53.1032959 58.17333984 53.70385742 C55.88039686 56.61728638 53.58313004 59.52722144 51.28125 62.43359375 C44.36541063 71.18769502 37.70015539 80.06645949 31 89 C49.81 89 68.62 89 88 89 C88 95.6 88 102.2 88 109 C58.63 109 29.26 109 -1 109 C-1 90.10091946 -1 90.10091946 3.01171875 85.63085938 C3.58535156 85.07205078 4.15898437 84.51324219 4.75 83.9375 C5.95640171 82.61626574 7.15944643 81.29195961 8.359375 79.96484375 C9.27686523 78.98427002 9.27686523 78.98427002 10.21289062 77.98388672 C13.05123856 74.83301031 15.51026211 71.42809392 18 68 C22.5886041 61.79009926 27.37593985 55.77388745 32.27197266 49.80444336 C36.48072288 44.66570534 40.56102523 39.44374249 44.5859375 34.16015625 C47.69774347 30.0866109 50.85286663 26.04631433 54 22 C36.18 21.67 18.36 21.34 0 21 C0 14.07 0 7.14 0 0 Z " fill="#011973" transform="translate(493,540)"/>
<path d="M0 0 C2.30859375 2.69140625 2.30859375 2.69140625 4 5 C2.26469658 7.34565153 0.51344532 9.67566241 -1.25 12 C-1.98669922 13.00160156 -1.98669922 13.00160156 -2.73828125 14.0234375 C-3.46337891 14.97089844 -3.46337891 14.97089844 -4.203125 15.9375 C-4.86296387 16.81728516 -4.86296387 16.81728516 -5.53613281 17.71484375 C-7 19 -7 19 -11 19 C-13.05620692 18.09747696 -15.07563112 17.10886837 -17.0625 16.0625 C-22.94233085 12.98812614 -27.25629761 11.79770236 -33.875 11.75 C-34.58269531 11.729375 -35.29039062 11.70875 -36.01953125 11.6875 C-40.54401959 11.65379804 -43.41574425 12.19256013 -47 15 C-48.57898053 18.15796107 -48.81928171 21.60670636 -48 25 C-44.52218845 29.05186572 -41.61581399 30.86078083 -36.5546875 32.46484375 C-35.31203125 32.87283203 -34.069375 33.28082031 -32.7890625 33.70117188 C-31.48481223 34.11466292 -30.18012139 34.5267668 -28.875 34.9375 C-1.36764387 43.66231551 -1.36764387 43.66231551 5.16015625 56.234375 C7.73510453 64.71373958 7.13491461 75.97100826 3.25 83.9296875 C-1.94540521 92.53457739 -9.34778149 97.67433319 -18.875 100.875 C-36.48669601 105.04684856 -53.65905977 101.55419263 -69.19921875 92.75 C-72.43719359 90.72683022 -75.22575391 88.61571774 -78 86 C-77.07677774 81.47187365 -74.7800645 78.45054316 -72.125 74.75 C-71.67769531 74.1003125 -71.23039062 73.450625 -70.76953125 72.78125 C-69.59221094 71.12813948 -68.30252392 69.55637043 -67 68 C-63.26552457 68 -62.31699663 69.0271581 -59.375 71.25 C-49.2763264 78.54348649 -40.41393083 80.84571792 -28 80 C-24.47612474 79.19858355 -21.87022525 78.09724054 -19.5625 75.1875 C-18.63841032 71.59381792 -18.43984697 68.42722535 -19.81005859 64.93603516 C-24.1833537 57.82068223 -38.49837636 55.82307353 -45.9140625 53.53125 C-56.6668974 50.08359217 -66.19772675 46.17358046 -72 36 C-75.47266907 29.03062955 -75.33859683 19.33107981 -73.0546875 11.94140625 C-71.85929235 9.47167477 -70.55656552 7.25702 -69 5 C-68.278125 3.9275 -67.55625 2.855 -66.8125 1.75 C-49.15949626 -15.51071477 -19.25816323 -13.66397224 0 0 Z " fill="#021974" transform="translate(477,701)"/>
<path d="M0 0 C8.58 0 17.16 0 26 0 C28.48503072 6.94962233 30.96991539 13.89929461 33.45360565 20.84939575 C34.61106414 24.08819552 35.7687392 27.32691744 36.92700195 30.56542969 C38.26586509 34.30898463 39.60376907 38.05288181 40.94140625 41.796875 C41.3765152 43.01411255 41.81162415 44.2313501 42.25991821 45.48547363 C44.25274672 51.0688785 46.23465208 56.65543774 48.17919922 62.25585938 C48.50540756 63.19520325 48.83161591 64.13454712 49.16770935 65.10235596 C49.76607309 66.83052446 50.36182216 68.55960134 50.95448303 70.28973389 C51.98357359 73.92475492 51.98357359 73.92475492 54 77 C54.41556404 75.84060661 54.41556404 75.84060661 54.83952332 74.65779114 C57.4706626 67.31794649 60.10325636 59.97862585 62.73742199 52.63986683 C64.09111143 48.86834559 65.4442682 45.09663514 66.79614258 41.32446289 C68.10459348 37.67352152 69.41452847 34.02311559 70.72542763 30.3730526 C71.22142045 28.99123185 71.71690819 27.60922968 72.21184349 26.2270298 C75.35965946 17.43747308 78.61826651 8.70239903 82 0 C90.25 0 98.5 0 107 0 C105.8751278 6.74923319 105.8751278 6.74923319 104.55151367 10.15454102 C104.10681732 11.31158539 104.10681732 11.31158539 103.65313721 12.49200439 C103.16547882 13.73539581 103.16547882 13.73539581 102.66796875 15.00390625 C102.32376892 15.89575623 101.97956909 16.7876062 101.62493896 17.70648193 C100.87640682 19.64450681 100.12534156 21.58155478 99.37203979 23.51773071 C97.33561009 28.7522181 95.31738963 33.99372858 93.296875 39.234375 C92.87135849 40.3365889 92.44584198 41.4388028 92.00743103 42.57441711 C86.45399565 56.9770824 81.02956871 71.42854951 75.59725952 85.87722778 C74.74331127 88.14829986 73.88898945 90.41923151 73.03424072 92.69000244 C72.25609826 94.75737454 71.47890998 96.82510611 70.70281982 98.89324951 C70.35994934 99.80415344 70.01707886 100.71505737 69.66381836 101.65356445 C69.36503281 102.44890091 69.06624725 103.24423737 68.75840759 104.06367493 C68 106 68 106 67 108 C58.09 108 49.18 108 40 108 C31.41636026 85.6236232 22.90454226 63.22134898 14.48364258 40.78320312 C12.95460044 36.709522 11.42143651 32.6374034 9.88753033 28.56555176 C8.69038809 25.38550991 7.49613791 22.20438791 6.30271339 19.02294922 C5.73722796 17.5169999 5.17065083 16.01146003 4.60294151 14.50634766 C3.82295484 12.43766329 3.04706372 10.36748894 2.2722168 8.296875 C1.83177536 7.12479492 1.39133392 5.95271484 0.93754578 4.74511719 C0 2 0 2 0 0 Z " fill="#011974" transform="translate(220,693)"/>
<path d="M0 0 C8.25 0 16.5 0 25 0 C25 29.04 25 58.08 25 88 C40.84 88 56.68 88 73 88 C73 94.93 73 101.86 73 109 C48.91 109 24.82 109 0 109 C0 73.03 0 37.06 0 0 Z " fill="#031A74" transform="translate(263,540)"/>
<path d="M0 0 C7.06153762 6.20928308 10.61948719 14.54050751 11.35546875 23.75390625 C11.8136165 35.25405999 10.41441118 44.16960538 2.7890625 53.23046875 C-4.4279807 60.70865496 -11.45084711 62.88886684 -21.7109375 63.10546875 C-31.31841923 63.00518188 -37.29433253 60.09081924 -44.2421875 53.5703125 C-52.05502997 45.49112312 -53.47710542 35.92371604 -53.37792969 25.12182617 C-53.03337414 15.29654135 -50.10250466 7.88945375 -43.24609375 0.73828125 C-30.43590061 -10.16680625 -13.35693751 -9.55752596 0 0 Z " fill="#FAF8F6" transform="translate(638.9609375,719.20703125)"/>
<path d="M0 0 C7.92 0 15.84 0 24 0 C24 35.97 24 71.94 24 109 C16.08 109 8.16 109 0 109 C0 73.03 0 37.06 0 0 Z " fill="#001772" transform="translate(610,540)"/>
<path d="M0 0 C7.92 0 15.84 0 24 0 C24 35.64 24 71.28 24 108 C16.08 108 8.16 108 0 108 C0 72.36 0 36.72 0 0 Z " fill="#001773" transform="translate(350,693)"/>
<path d="M0 0 C7.59 0.33 15.18 0.66 23 1 C23 36.31 23 71.62 23 108 C15.41 108 7.82 108 0 108 C0 72.36 0 36.72 0 0 Z " fill="#001772" transform="translate(511,693)"/>
<path d="M0 0 C1.78341979 3.08045237 1.88686027 4.86510104 1.375 8.375 C-0.09935165 10.87884581 -1.00821925 12.13728538 -3.74707031 13.19287109 C-4.55756836 13.34320801 -5.36806641 13.49354492 -6.203125 13.6484375 C-7.10957764 13.83003418 -8.01603027 14.01163086 -8.94995117 14.19873047 C-9.91521729 14.38064941 -10.8804834 14.56256836 -11.875 14.75 C-33.03977114 19.16672588 -53.283396 28.29323925 -65.625 46.9375 C-70.65614804 55.60429516 -73.03992434 63.15659289 -73.9375 73.17578125 C-74.73868188 76.90400832 -75.96649389 78.67732622 -78.625 81.375 C-81.5625 82.5 -81.5625 82.5 -84.625 82.375 C-87.5 80.5625 -87.5 80.5625 -89.625 77.375 C-90.22673237 73.97552227 -89.96571792 70.79657578 -89.625 67.375 C-89.56441406 66.46621094 -89.50382813 65.55742187 -89.44140625 64.62109375 C-87.39798368 46.07892602 -74.27711642 29.88375053 -60.2890625 18.46875 C-47.41778523 9.06117193 -15.90314742 -9.84480554 0 0 Z " fill="#021872" transform="translate(298.625,270.625)"/>
<path d="M0 0 C0.66 0 1.32 0 2 0 C3.99591179 5.25026416 5.98968494 10.50133336 7.98144531 15.75317383 C8.65988796 17.54115967 9.33892346 19.32892068 10.01855469 21.11645508 C10.99308243 23.67991764 11.96550309 26.24417068 12.9375 28.80859375 C13.24373291 29.6127623 13.54996582 30.41693085 13.86547852 31.24546814 C16 36.88612829 16 36.88612829 16 38 C6.1 38 -3.8 38 -14 38 C-9.56200609 25.2407675 -4.85915707 12.60448268 0 0 Z " fill="#F8F7F6" transform="translate(412,568)"/>
<path d="M0 0 C3.21746321 2.65790439 3.08233008 3.41165038 4 8 C-6.89 8 -17.78 8 -29 8 C-28.67 6.68 -28.34 5.36 -28 4 C-28 4.66 -28 5.32 -28 6 C-18.43 5.67 -8.86 5.34 1 5 C0.67 3.35 0.34 1.7 0 0 Z " fill="#07146C" transform="translate(426,600)"/>
<path d="M0 0 C8.58 0 17.16 0 26 0 C25.67 1.32 25.34 2.64 25 4 C25 3.34 25 2.68 25 2 C17.41 2 9.82 2 2 2 C1.67 2.66 1.34 3.32 1 4 C0.67 2.68 0.34 1.36 0 0 Z " fill="#212D70" transform="translate(220,693)"/>
<path d="M0 0 C0.99 0.33 1.98 0.66 3 1 C2.88590318 3.10478604 2.75834639 5.20884577 2.625 7.3125 C2.52058594 9.07013672 2.52058594 9.07013672 2.4140625 10.86328125 C2 14 2 14 0 17 C0 11.39 0 5.78 0 0 Z " fill="#EBEEF4" transform="translate(818,585)"/>
<path d="M0 0 C0.33 0.99 0.66 1.98 1 3 C-1.97 6.3 -4.94 9.6 -8 13 C-8.66 12.67 -9.32 12.34 -10 12 C-8.52149287 10.18696196 -7.04217625 8.37458402 -5.5625 6.5625 C-4.32693359 5.04849609 -4.32693359 5.04849609 -3.06640625 3.50390625 C-1 1 -1 1 0 0 Z " fill="#061163" transform="translate(513,606)"/>
<path d="M0 0 C1 2 1 2 0.125 4.875 C-0.24625 5.90625 -0.6175 6.9375 -1 8 C-1.34976758 9.32911682 -1.69096017 10.66082739 -2 12 C-2.66 12 -3.32 12 -4 12 C-4.99 15.465 -4.99 15.465 -6 19 C-7.38496444 14.84510669 -5.74896471 12.21477434 -4.125 8.375 C-3.70154297 7.33472656 -3.70154297 7.33472656 -3.26953125 6.2734375 C-1.16380295 1.16380295 -1.16380295 1.16380295 0 0 Z " fill="#060E5F" transform="translate(383,583)"/>
<path d="M0 0 C3.69948187 2.46632124 3.69948187 2.46632124 5 5 C4.84446455 9.1243711 4.00057075 13.00409005 3 17 C2.67 17 2.34 17 2 17 C1.93941406 16.19175781 1.87882813 15.38351562 1.81640625 14.55078125 C1.73261719 13.48214844 1.64882813 12.41351562 1.5625 11.3125 C1.48128906 10.25675781 1.40007813 9.20101562 1.31640625 8.11328125 C1.03548319 5.34913703 0.59843148 2.71054259 0 0 Z " fill="#F3F4F4" transform="translate(692,579)"/>
<path d="M0 0 C0.66 0.33 1.32 0.66 2 1 C2 3.97 2 6.94 2 10 C1.01 9.67 0.02 9.34 -1 9 C-0.67 6.03 -0.34 3.06 0 0 Z " fill="#F1F3F5" transform="translate(472,312)"/>
<path d="M0 0 C0.66 0 1.32 0 2 0 C1.835 0.928125 1.67 1.85625 1.5 2.8125 C0.92251612 5.95621353 0.92251612 5.95621353 1 9 C0.01 9 -0.98 9 -2 9 C-1.34 6.03 -0.68 3.06 0 0 Z " fill="#ECEEF2" transform="translate(673,761)"/>
<path d="M0 0 C2.18975773 3.28463659 2.99806563 6.20696275 4 10 C3.01 10 2.02 10 1 10 C0.63883954 8.5225254 0.28624952 7.04295325 -0.0625 5.5625 C-0.25972656 4.73878906 -0.45695313 3.91507812 -0.66015625 3.06640625 C-0.82837891 2.04353516 -0.82837891 2.04353516 -1 1 C-0.67 0.67 -0.34 0.34 0 0 Z " fill="#F2F3F5" transform="translate(200,378)"/>
<path d="M0 0 C4.95 0.99 4.95 0.99 10 2 C9.67 2.66 9.34 3.32 9 4 C5.65626525 3.44271087 2.96687001 2.64826111 0 1 C0 0.67 0 0.34 0 0 Z " fill="#EFF0F5" transform="translate(426,753)"/>
<path d="M0 0 C0.99 0 1.98 0 3 0 C1.84826645 2.46800047 0.95216435 4.04783565 -1 6 C-1.99 5.67 -2.98 5.34 -4 5 C-2.1875 2.5 -2.1875 2.5 0 0 Z " fill="#08166B" transform="translate(499,623)"/>
<path d="M0 0 C5 2 5 2 10 4 C9.67 4.99 9.34 5.98 9 7 C7.4972763 6.02501855 5.99788037 5.04490611 4.5 4.0625 C3.6646875 3.51722656 2.829375 2.97195313 1.96875 2.41015625 C1.3190625 1.94480469 0.669375 1.47945312 0 1 C0 0.67 0 0.34 0 0 Z " fill="#101661" transform="translate(208,565)"/>
<path d="M0 0 C0.66 0.33 1.32 0.66 2 1 C1.71125 1.556875 1.4225 2.11375 1.125 2.6875 C-0.0413253 5.08494645 -1.0339881 7.51596939 -2 10 C-3.39195915 5.82412255 -1.82323219 3.86525224 0 0 Z " fill="#08105E" transform="translate(280,755)"/>
<path d="M0 0 C1.9451 2.91765 2.45276317 4.62537285 3 8 C1.68 7.67 0.36 7.34 -1 7 C-0.67 6.34 -0.34 5.68 0 5 C-0.32380126 3.66431979 -0.65657551 2.33076989 -1 1 C-0.67 0.67 -0.34 0.34 0 0 Z " fill="#111E6F" transform="translate(154,604)"/>
<path d="M0 0 C0 0.99 0 1.98 0 3 C-1.96466413 4.06775224 -3.96855359 5.06553465 -6 6 C-6.66 5.67 -7.32 5.34 -8 5 C-4.04 2.525 -4.04 2.525 0 0 Z " fill="#0B1163" transform="translate(779,443)"/>
</svg>
